<?xml version="1.0" encoding="UTF-8" standalone="no"?><svg xmlns="http://www.w3.org/2000/svg" xmlns:xlink="http://www.w3.org/1999/xlink" contentScriptType="application/ecmascript" contentStyleType="text/css" height="285px" preserveAspectRatio="none" style="width:706px;height:285px;" version="1.1" viewBox="0 0 706 285" width="706px" zoomAndPan="magnify"><defs><filter height="300%" id="ferfeefirw1pw" width="300%" x="-1" y="-1"><feGaussianBlur result="blurOut" stdDeviation="2.0"/><feColorMatrix in="blurOut" result="blurOut2" type="matrix" values="0 0 0 0 0 0 0 0 0 0 0 0 0 0 0 0 0 0 .4 0"/><feOffset dx="4.0" dy="4.0" in="blurOut2" result="blurOut3"/><feBlend in="SourceGraphic" in2="blurOut3" mode="normal"/></filter></defs><g><text fill="#000000" font-family="sans-serif" font-size="18" lengthAdjust="spacingAndGlyphs" textLength="174" x="270" y="16.708">Diagrama de Clases</text><!--MD5=[cc507320652ef009e9362c58fe69075e]
class Atacante--><rect fill="#FEFECE" filter="url(#ferfeefirw1pw)" height="60.8047" id="Atacante" style="stroke: #A80036; stroke-width: 1.5;" width="174" x="144" y="41.4531"/><ellipse cx="198.25" cy="57.4531" fill="#A9DCDF" rx="11" ry="11" style="stroke: #A80036; stroke-width: 1.0;"/><path d="M198.3594,52.7969 L197.2031,57.875 L199.5313,57.875 L198.3594,52.7969 Z M196.875,50.5625 L199.8594,50.5625 L203.2188,62.9531 L200.7656,62.9531 L200,59.8906 L196.7188,59.8906 L195.9688,62.9531 L193.5313,62.9531 L196.875,50.5625 Z "/><text fill="#000000" font-family="sans-serif" font-size="12" font-style="italic" lengthAdjust="spacingAndGlyphs" textLength="57" x="218.75" y="61.6074">Atacante</text><line style="stroke: #A80036; stroke-width: 1.5;" x1="145" x2="317" y1="73.4531" y2="73.4531"/><line style="stroke: #A80036; stroke-width: 1.5;" x1="145" x2="317" y1="81.4531" y2="81.4531"/><ellipse cx="155" cy="92.4531" fill="#84BE84" rx="3" ry="3" style="stroke: #038048; stroke-width: 1.0;"/><text fill="#000000" font-family="sans-serif" font-size="11" font-style="italic" lengthAdjust="spacingAndGlyphs" textLength="148" x="164" y="95.6636">atacar(objetivo : Atacable)</text><!--MD5=[a055dae8adfa9fee31ac12cb8e4144c6]
class Atacable--><rect fill="#FEFECE" filter="url(#ferfeefirw1pw)" height="86.4141" id="Atacable" style="stroke: #A80036; stroke-width: 1.5;" width="189" x="365.5" y="28.9531"/><ellipse cx="428.25" cy="44.9531" fill="#A9DCDF" rx="11" ry="11" style="stroke: #A80036; stroke-width: 1.0;"/><path d="M428.3594,40.2969 L427.2031,45.375 L429.5313,45.375 L428.3594,40.2969 Z M426.875,38.0625 L429.8594,38.0625 L433.2188,50.4531 L430.7656,50.4531 L430,47.3906 L426.7188,47.3906 L425.9688,50.4531 L423.5313,50.4531 L426.875,38.0625 Z "/><text fill="#000000" font-family="sans-serif" font-size="12" font-style="italic" lengthAdjust="spacingAndGlyphs" textLength="55" x="448.75" y="49.1074">Atacable</text><line style="stroke: #A80036; stroke-width: 1.5;" x1="366.5" x2="553.5" y1="60.9531" y2="60.9531"/><ellipse cx="376.5" cy="71.9531" fill="none" rx="3" ry="3" style="stroke: #038048; stroke-width: 1.0;"/><text fill="#000000" font-family="sans-serif" font-size="11" lengthAdjust="spacingAndGlyphs" textLength="89" x="385.5" y="75.1636">resistencia : int</text><line style="stroke: #A80036; stroke-width: 1.5;" x1="366.5" x2="553.5" y1="81.7578" y2="81.7578"/><ellipse cx="376.5" cy="92.7578" fill="#84BE84" rx="3" ry="3" style="stroke: #038048; stroke-width: 1.0;"/><text fill="#000000" font-family="sans-serif" font-size="11" font-style="italic" lengthAdjust="spacingAndGlyphs" textLength="163" x="385.5" y="95.9683">recibir_ataque(potencia : int)</text><polygon fill="#FFFF44" points="376.5,100.5625,380.5,104.5625,376.5,108.5625,372.5,104.5625" style="stroke: #B38D22; stroke-width: 1.0;"/><text fill="#000000" font-family="sans-serif" font-size="11" lengthAdjust="spacingAndGlyphs" textLength="115" x="385.5" y="108.7729">validar_resistencia()</text><!--MD5=[b1982db06aa5c1dbc98a1613a34a95b2]
class Arma--><rect fill="#FEFECE" filter="url(#ferfeefirw1pw)" height="86.4141" id="Arma" style="stroke: #A80036; stroke-width: 1.5;" width="196" x="6" y="181.4531"/><ellipse cx="83.75" cy="197.4531" fill="#ADD1B2" rx="11" ry="11" style="stroke: #A80036; stroke-width: 1.0;"/><path d="M86.7188,203.0938 Q86.1406,203.3906 85.5,203.5391 Q84.8594,203.6875 84.1563,203.6875 Q81.6563,203.6875 80.3359,202.0391 Q79.0156,200.3906 79.0156,197.2656 Q79.0156,194.1406 80.3359,192.4844 Q81.6563,190.8281 84.1563,190.8281 Q84.8594,190.8281 85.5078,190.9844 Q86.1563,191.1406 86.7188,191.4375 L86.7188,194.1563 Q86.0938,193.5781 85.5,193.3047 Q84.9063,193.0313 84.2813,193.0313 Q82.9375,193.0313 82.25,194.1016 Q81.5625,195.1719 81.5625,197.2656 Q81.5625,199.3594 82.25,200.4297 Q82.9375,201.5 84.2813,201.5 Q84.9063,201.5 85.5,201.2266 Q86.0938,200.9531 86.7188,200.375 L86.7188,203.0938 Z "/><text fill="#000000" font-family="sans-serif" font-size="12" lengthAdjust="spacingAndGlyphs" textLength="32" x="104.25" y="201.6074">Arma</text><line style="stroke: #A80036; stroke-width: 1.5;" x1="7" x2="201" y1="213.4531" y2="213.4531"/><ellipse cx="17" cy="224.4531" fill="none" rx="3" ry="3" style="stroke: #038048; stroke-width: 1.0;"/><text fill="#000000" font-family="sans-serif" font-size="11" lengthAdjust="spacingAndGlyphs" textLength="74" x="26" y="227.6636">potencia : int</text><line style="stroke: #A80036; stroke-width: 1.5;" x1="7" x2="201" y1="234.2578" y2="234.2578"/><ellipse cx="17" cy="245.2578" fill="#84BE84" rx="3" ry="3" style="stroke: #038048; stroke-width: 1.0;"/><text fill="#000000" font-family="sans-serif" font-size="11" lengthAdjust="spacingAndGlyphs" textLength="170" x="26" y="248.4683">constructor(potencia=10 : int)</text><ellipse cx="17" cy="258.0625" fill="#84BE84" rx="3" ry="3" style="stroke: #038048; stroke-width: 1.0;"/><text fill="#000000" font-family="sans-serif" font-size="11" lengthAdjust="spacingAndGlyphs" textLength="148" x="26" y="261.2729">atacar(objetivo : Atacable)</text><!--MD5=[5aa00168848c6b15c28f99760e13809d]
class Escudo--><rect fill="#FEFECE" filter="url(#ferfeefirw1pw)" height="86.4141" id="Escudo" style="stroke: #A80036; stroke-width: 1.5;" width="205" x="490.5" y="181.4531"/><ellipse cx="565.75" cy="197.4531" fill="#ADD1B2" rx="11" ry="11" style="stroke: #A80036; stroke-width: 1.0;"/><path d="M568.7188,203.0938 Q568.1406,203.3906 567.5,203.5391 Q566.8594,203.6875 566.1563,203.6875 Q563.6563,203.6875 562.3359,202.0391 Q561.0156,200.3906 561.0156,197.2656 Q561.0156,194.1406 562.3359,192.4844 Q563.6563,190.8281 566.1563,190.8281 Q566.8594,190.8281 567.5078,190.9844 Q568.1563,191.1406 568.7188,191.4375 L568.7188,194.1563 Q568.0938,193.5781 567.5,193.3047 Q566.9063,193.0313 566.2813,193.0313 Q564.9375,193.0313 564.25,194.1016 Q563.5625,195.1719 563.5625,197.2656 Q563.5625,199.3594 564.25,200.4297 Q564.9375,201.5 566.2813,201.5 Q566.9063,201.5 567.5,201.2266 Q568.0938,200.9531 568.7188,200.375 L568.7188,203.0938 Z "/><text fill="#000000" font-family="sans-serif" font-size="12" lengthAdjust="spacingAndGlyphs" textLength="46" x="586.25" y="201.6074">Escudo</text><line style="stroke: #A80036; stroke-width: 1.5;" x1="491.5" x2="694.5" y1="213.4531" y2="213.4531"/><ellipse cx="501.5" cy="224.4531" fill="none" rx="3" ry="3" style="stroke: #038048; stroke-width: 1.0;"/><text fill="#000000" font-family="sans-serif" font-size="11" lengthAdjust="spacingAndGlyphs" textLength="89" x="510.5" y="227.6636">resistencia : int</text><line style="stroke: #A80036; stroke-width: 1.5;" x1="491.5" x2="694.5" y1="234.2578" y2="234.2578"/><ellipse cx="501.5" cy="245.2578" fill="#84BE84" rx="3" ry="3" style="stroke: #038048; stroke-width: 1.0;"/><text fill="#000000" font-family="sans-serif" font-size="11" lengthAdjust="spacingAndGlyphs" textLength="73" x="510.5" y="248.4683">constructor()</text><ellipse cx="501.5" cy="258.0625" fill="#84BE84" rx="3" ry="3" style="stroke: #038048; stroke-width: 1.0;"/><text fill="#000000" font-family="sans-serif" font-size="11" lengthAdjust="spacingAndGlyphs" textLength="179" x="510.5" y="261.2729">recibir_ataque(potencia=0 : int)</text><!--MD5=[731894fa9f57abba77def579cafe469c]
class Fauno--><rect fill="#FEFECE" filter="url(#ferfeefirw1pw)" height="99.2188" id="Fauno" style="stroke: #A80036; stroke-width: 1.5;" width="218" x="237" y="174.9531"/><ellipse cx="322.25" cy="190.9531" fill="#ADD1B2" rx="11" ry="11" style="stroke: #A80036; stroke-width: 1.0;"/><path d="M325.2188,196.5938 Q324.6406,196.8906 324,197.0391 Q323.3594,197.1875 322.6563,197.1875 Q320.1563,197.1875 318.8359,195.5391 Q317.5156,193.8906 317.5156,190.7656 Q317.5156,187.6406 318.8359,185.9844 Q320.1563,184.3281 322.6563,184.3281 Q323.3594,184.3281 324.0078,184.4844 Q324.6563,184.6406 325.2188,184.9375 L325.2188,187.6563 Q324.5938,187.0781 324,186.8047 Q323.4063,186.5313 322.7813,186.5313 Q321.4375,186.5313 320.75,187.6016 Q320.0625,188.6719 320.0625,190.7656 Q320.0625,192.8594 320.75,193.9297 Q321.4375,195 322.7813,195 Q323.4063,195 324,194.7266 Q324.5938,194.4531 325.2188,193.875 L325.2188,196.5938 Z "/><text fill="#000000" font-family="sans-serif" font-size="12" lengthAdjust="spacingAndGlyphs" textLength="39" x="342.75" y="195.1074">Fauno</text><line style="stroke: #A80036; stroke-width: 1.5;" x1="238" x2="454" y1="206.9531" y2="206.9531"/><ellipse cx="248" cy="217.9531" fill="none" rx="3" ry="3" style="stroke: #038048; stroke-width: 1.0;"/><text fill="#000000" font-family="sans-serif" font-size="11" lengthAdjust="spacingAndGlyphs" textLength="89" x="257" y="221.1636">resistencia : int</text><line style="stroke: #A80036; stroke-width: 1.5;" x1="238" x2="454" y1="227.7578" y2="227.7578"/><ellipse cx="248" cy="238.7578" fill="#84BE84" rx="3" ry="3" style="stroke: #038048; stroke-width: 1.0;"/><text fill="#000000" font-family="sans-serif" font-size="11" lengthAdjust="spacingAndGlyphs" textLength="192" x="257" y="241.9683">constructor(resistencia=100 : int)</text><ellipse cx="248" cy="251.5625" fill="#84BE84" rx="3" ry="3" style="stroke: #038048; stroke-width: 1.0;"/><text fill="#000000" font-family="sans-serif" font-size="11" lengthAdjust="spacingAndGlyphs" textLength="148" x="257" y="254.7729">atacar(objetivo : Atacable)</text><ellipse cx="248" cy="264.3672" fill="#84BE84" rx="3" ry="3" style="stroke: #038048; stroke-width: 1.0;"/><text fill="#000000" font-family="sans-serif" font-size="11" lengthAdjust="spacingAndGlyphs" textLength="163" x="257" y="267.5776">recibir_ataque(potencia : int)</text><!--MD5=[faafeda32a1dcb616a2f6bac8ee17ad3]
reverse link Atacante to Fauno--><path d="M266.3815,118.8721 C279.7333,136.5777 294.9623,156.7727 308.5013,174.7266 " fill="none" id="Atacante&lt;-Fauno" style="stroke: #A80036; stroke-width: 1.0;"/><polygon fill="none" points="260.7249,122.997,254.272,102.8138,271.9028,114.5676,260.7249,122.997" style="stroke: #A80036; stroke-width: 1.0;"/><!--MD5=[e8297a3331e08fe018cd7583f5ef9877]
reverse link Atacante to Arma--><path d="M192.3579,118.3541 C175.709,138.3458 156.353,161.5883 140.0083,181.2147 " fill="none" id="Atacante&lt;-Arma" style="stroke: #A80036; stroke-width: 1.0;"/><polygon fill="none" points="187.1219,113.7028,205.2997,102.8138,197.8799,122.6619,187.1219,113.7028" style="stroke: #A80036; stroke-width: 1.0;"/><!--MD5=[0dd6f6ead240e28dba4c4cb2a9c5456d]
reverse link Atacable to Fauno--><path d="M415.4411,131.5604 C404.7283,145.8911 393.3992,161.0463 383.0691,174.865 " fill="none" id="Atacable&lt;-Fauno" style="stroke: #A80036; stroke-width: 1.0;"/><polygon fill="none" points="410.0557,127.0733,427.6371,115.2456,421.2689,135.4557,410.0557,127.0733" style="stroke: #A80036; stroke-width: 1.0;"/><!--MD5=[6f78e5f669fb3f8b8e18d2486c274fb5]
reverse link Atacable to Escudo--><path d="M510.9325,130.3531 C525.7104,147.2977 541.5751,165.4884 555.3792,181.3165 " fill="none" id="Atacable&lt;-Escudo" style="stroke: #A80036; stroke-width: 1.0;"/><polygon fill="none" points="505.6268,134.9195,497.7567,115.2456,516.1779,125.7176,505.6268,134.9195" style="stroke: #A80036; stroke-width: 1.0;"/><!--MD5=[0c57dc2802612a79ad857a419a231c38]
@startuml
title Diagrama de Clases

abstract class Atacante {
  {abstract} + atacar(objetivo : Atacable)
}

abstract class Atacable {
  + resistencia : int
  {abstract} + recibir_ataque(potencia : int)
  # validar_resistencia()
}

class Arma {
  + potencia : int
  + constructor(potencia=10 : int)
  + atacar(objetivo : Atacable)
}

class Escudo {
  + resistencia : int
  + constructor()
  + recibir_ataque(potencia=0 : int)
}

class Fauno {
  + resistencia : int
  + constructor(resistencia=100 : int)
  + atacar(objetivo : Atacable)
  + recibir_ataque(potencia : int)
}

Atacante <|-down- Fauno
Atacante <|-down- Arma
Atacable <|-down- Fauno
Atacable <|-down- Escudo
@enduml

PlantUML version 1.2019.11(Sun Sep 22 10:02:15 UTC 2019)
(GPL source distribution)
Java Runtime: OpenJDK Runtime Environment
JVM: OpenJDK 64-Bit Server VM
Java Version: 1.8.0_222-heroku-b10
Operating System: Linux
Default Encoding: UTF-8
Language: en
Country: US
--></g></svg>